<mxfile host="65bd71144e">
    <diagram id="S4ahoM8RJMc4e9Oh4TYU" name="Page-1">
        <mxGraphModel dx="1118" dy="546" grid="1" gridSize="10" guides="1" tooltips="1" connect="1" arrows="1" fold="1" page="1" pageScale="1" pageWidth="850" pageHeight="1100" math="0" shadow="0">
            <root>
                <mxCell id="0"/>
                <mxCell id="1" parent="0"/>
                <mxCell id="2" value="«subsystem»&lt;br&gt;WebStore" style="html=1;dropTarget=0;verticalAlign=top;fillColor=none;fontColor=#006EAF;strokeColor=#006EAF;" vertex="1" parent="1">
                    <mxGeometry x="120" y="40" width="300" height="330" as="geometry"/>
                </mxCell>
                <mxCell id="3" value="" style="shape=module;jettyWidth=8;jettyHeight=4;fillColor=none;fontColor=#006EAF;strokeColor=#006EAF;" vertex="1" parent="2">
                    <mxGeometry x="1" width="20" height="20" relative="1" as="geometry">
                        <mxPoint x="-27" y="7" as="offset"/>
                    </mxGeometry>
                </mxCell>
                <mxCell id="4" value=":SearchEngine" style="html=1;dropTarget=0;fillColor=none;fontColor=#006EAF;strokeColor=#006EAF;" vertex="1" parent="1">
                    <mxGeometry x="200" y="80" width="140" height="60" as="geometry"/>
                </mxCell>
                <mxCell id="5" value="" style="shape=module;jettyWidth=8;jettyHeight=4;fillColor=none;fontColor=#006EAF;strokeColor=#006EAF;" vertex="1" parent="4">
                    <mxGeometry x="1" width="20" height="20" relative="1" as="geometry">
                        <mxPoint x="-27" y="7" as="offset"/>
                    </mxGeometry>
                </mxCell>
                <mxCell id="28" value="" style="edgeStyle=none;jumpSize=2;html=1;shadow=0;fontColor=#006EAF;startArrow=none;startFill=0;endArrow=oval;endFill=1;startSize=0;endSize=8;sourcePerimeterSpacing=0;targetPerimeterSpacing=0;fillColor=#1ba1e2;strokeColor=#006EAF;" edge="1" parent="1" source="6">
                    <mxGeometry relative="1" as="geometry">
                        <mxPoint x="154" y="110" as="targetPoint"/>
                    </mxGeometry>
                </mxCell>
                <mxCell id="6" value="" style="html=1;rounded=0;rotation=-180;fillColor=#006EAF;fontColor=#006EAF;strokeColor=#006EAF;" vertex="1" parent="1">
                    <mxGeometry x="190" y="100" width="20" height="20" as="geometry"/>
                </mxCell>
                <mxCell id="15" value=":ShoppingCart" style="html=1;dropTarget=0;fillColor=none;fontColor=#006EAF;strokeColor=#006EAF;" vertex="1" parent="1">
                    <mxGeometry x="200" y="160" width="140" height="60" as="geometry"/>
                </mxCell>
                <mxCell id="16" value="" style="shape=module;jettyWidth=8;jettyHeight=4;fillColor=none;fontColor=#006EAF;strokeColor=#006EAF;" vertex="1" parent="15">
                    <mxGeometry x="1" width="20" height="20" relative="1" as="geometry">
                        <mxPoint x="-27" y="7" as="offset"/>
                    </mxGeometry>
                </mxCell>
                <mxCell id="18" value="" style="rounded=0;orthogonalLoop=1;jettySize=auto;html=1;endArrow=none;endFill=0;sketch=0;sourcePerimeterSpacing=0;targetPerimeterSpacing=0;startSize=0;endSize=8;fillColor=#1ba1e2;strokeColor=#006EAF;fontColor=#006EAF;" edge="1" parent="1" target="12">
                    <mxGeometry relative="1" as="geometry">
                        <mxPoint x="155" y="110" as="sourcePoint"/>
                        <mxPoint x="150" y="200" as="targetPoint"/>
                    </mxGeometry>
                </mxCell>
                <mxCell id="19" value=":Authentication" style="html=1;dropTarget=0;fillColor=none;fontColor=#006EAF;strokeColor=#006EAF;" vertex="1" parent="1">
                    <mxGeometry x="200" y="300" width="140" height="60" as="geometry"/>
                </mxCell>
                <mxCell id="20" value="" style="shape=module;jettyWidth=8;jettyHeight=4;fillColor=none;fontColor=#006EAF;strokeColor=#006EAF;" vertex="1" parent="19">
                    <mxGeometry x="1" width="20" height="20" relative="1" as="geometry">
                        <mxPoint x="-27" y="7" as="offset"/>
                    </mxGeometry>
                </mxCell>
                <mxCell id="25" value="" style="edgeStyle=none;html=1;shadow=0;startArrow=none;startFill=0;endArrow=halfCircle;endFill=0;startSize=0;endSize=6;sourcePerimeterSpacing=0;targetPerimeterSpacing=0;jumpSize=2;fillColor=#1ba1e2;strokeColor=#006EAF;fontColor=#006EAF;entryX=0.996;entryY=0.312;entryDx=0;entryDy=0;entryPerimeter=0;" edge="1" parent="1" source="22" target="26">
                    <mxGeometry relative="1" as="geometry">
                        <mxPoint x="270" y="250" as="targetPoint"/>
                    </mxGeometry>
                </mxCell>
                <mxCell id="22" value="" style="html=1;rounded=0;rotation=-180;fillColor=#006EAF;fontColor=#006EAF;strokeColor=#006EAF;" vertex="1" parent="1">
                    <mxGeometry x="260" y="210" width="20" height="20" as="geometry"/>
                </mxCell>
                <mxCell id="24" value="" style="html=1;shadow=0;startArrow=none;startFill=0;endArrow=oval;endFill=1;startSize=0;endSize=8;sourcePerimeterSpacing=0;targetPerimeterSpacing=0;fillColor=#1ba1e2;strokeColor=#006EAF;fontColor=#006EAF;entryX=0.998;entryY=0.296;entryDx=0;entryDy=0;entryPerimeter=0;" edge="1" parent="1" source="23" target="26">
                    <mxGeometry relative="1" as="geometry">
                        <mxPoint x="270" y="287" as="sourcePoint"/>
                        <mxPoint x="270" y="244" as="targetPoint"/>
                    </mxGeometry>
                </mxCell>
                <mxCell id="26" value="User&lt;br&gt;Session" style="text;html=1;align=right;verticalAlign=middle;resizable=0;points=[];autosize=1;strokeColor=none;fillColor=none;fontColor=#006EAF;spacingRight=10;container=0;" vertex="1" parent="1">
                    <mxGeometry x="200" y="245" width="70" height="40" as="geometry"/>
                </mxCell>
                <mxCell id="23" value="" style="html=1;rounded=0;rotation=-180;fillColor=#006EAF;fontColor=#006EAF;strokeColor=#006EAF;" vertex="1" parent="1">
                    <mxGeometry x="260" y="290" width="20" height="20" as="geometry"/>
                </mxCell>
                <mxCell id="12" value="" style="html=1;rounded=0;rotation=-180;fillColor=#006EAF;fontColor=#006EAF;strokeColor=#006EAF;" vertex="1" parent="1">
                    <mxGeometry x="110" y="100" width="20" height="20" as="geometry"/>
                </mxCell>
                <mxCell id="29" value="" style="edgeStyle=none;jumpSize=2;html=1;shadow=0;fontColor=#006EAF;startArrow=none;startFill=0;endArrow=oval;endFill=1;startSize=0;endSize=8;sourcePerimeterSpacing=0;targetPerimeterSpacing=0;fillColor=#1ba1e2;strokeColor=#006EAF;rounded=0;" edge="1" parent="1">
                    <mxGeometry relative="1" as="geometry">
                        <mxPoint x="109.99999999999989" y="109.69" as="sourcePoint"/>
                        <mxPoint x="74" y="109.69" as="targetPoint"/>
                    </mxGeometry>
                </mxCell>
                <mxCell id="30" value="Product&lt;br&gt;Search" style="text;html=1;align=center;verticalAlign=middle;resizable=0;points=[];autosize=1;strokeColor=none;fillColor=none;fontColor=#006EAF;" vertex="1" parent="1">
                    <mxGeometry x="50" y="65" width="60" height="40" as="geometry"/>
                </mxCell>
                <mxCell id="31" value="" style="edgeStyle=none;jumpSize=2;html=1;shadow=0;fontColor=#006EAF;startArrow=none;startFill=0;endArrow=oval;endFill=1;startSize=0;endSize=8;sourcePerimeterSpacing=0;targetPerimeterSpacing=0;fillColor=#1ba1e2;strokeColor=#006EAF;" edge="1" parent="1" source="32">
                    <mxGeometry relative="1" as="geometry">
                        <mxPoint x="154" y="190" as="targetPoint"/>
                    </mxGeometry>
                </mxCell>
                <mxCell id="32" value="" style="html=1;rounded=0;rotation=-180;fillColor=#006EAF;fontColor=#006EAF;strokeColor=#006EAF;" vertex="1" parent="1">
                    <mxGeometry x="190" y="180" width="20" height="20" as="geometry"/>
                </mxCell>
                <mxCell id="33" value="" style="rounded=0;orthogonalLoop=1;jettySize=auto;html=1;endArrow=none;endFill=0;sketch=0;sourcePerimeterSpacing=0;targetPerimeterSpacing=0;startSize=0;endSize=8;fillColor=#1ba1e2;strokeColor=#006EAF;fontColor=#006EAF;" edge="1" parent="1" target="34">
                    <mxGeometry relative="1" as="geometry">
                        <mxPoint x="154.9999999999999" y="190" as="sourcePoint"/>
                        <mxPoint x="150" y="280" as="targetPoint"/>
                    </mxGeometry>
                </mxCell>
                <mxCell id="34" value="" style="html=1;rounded=0;rotation=-180;fillColor=#006EAF;fontColor=#006EAF;strokeColor=#006EAF;" vertex="1" parent="1">
                    <mxGeometry x="110" y="180" width="20" height="20" as="geometry"/>
                </mxCell>
                <mxCell id="35" value="" style="edgeStyle=none;jumpSize=2;html=1;shadow=0;fontColor=#006EAF;startArrow=none;startFill=0;endArrow=oval;endFill=1;startSize=0;endSize=8;sourcePerimeterSpacing=0;targetPerimeterSpacing=0;fillColor=#1ba1e2;strokeColor=#006EAF;" edge="1" parent="1">
                    <mxGeometry relative="1" as="geometry">
                        <mxPoint x="109.99999999999989" y="189.69" as="sourcePoint"/>
                        <mxPoint x="74" y="189.69" as="targetPoint"/>
                    </mxGeometry>
                </mxCell>
                <mxCell id="36" value="Online&lt;br&gt;Shopping" style="text;html=1;align=center;verticalAlign=middle;resizable=0;points=[];autosize=1;strokeColor=none;fillColor=none;fontColor=#006EAF;" vertex="1" parent="1">
                    <mxGeometry x="45" y="145" width="70" height="40" as="geometry"/>
                </mxCell>
                <mxCell id="37" value="" style="edgeStyle=none;jumpSize=2;html=1;shadow=0;fontColor=#006EAF;startArrow=none;startFill=0;endArrow=oval;endFill=1;startSize=0;endSize=8;sourcePerimeterSpacing=0;targetPerimeterSpacing=0;fillColor=#1ba1e2;strokeColor=#006EAF;" edge="1" parent="1" source="38">
                    <mxGeometry relative="1" as="geometry">
                        <mxPoint x="154" y="330" as="targetPoint"/>
                    </mxGeometry>
                </mxCell>
                <mxCell id="38" value="" style="html=1;rounded=0;rotation=-180;fillColor=#006EAF;fontColor=#006EAF;strokeColor=#006EAF;" vertex="1" parent="1">
                    <mxGeometry x="190" y="320" width="20" height="20" as="geometry"/>
                </mxCell>
                <mxCell id="39" value="" style="rounded=0;orthogonalLoop=1;jettySize=auto;html=1;endArrow=none;endFill=0;sketch=0;sourcePerimeterSpacing=0;targetPerimeterSpacing=0;startSize=0;endSize=8;fillColor=#1ba1e2;strokeColor=#006EAF;fontColor=#006EAF;" edge="1" parent="1" target="40">
                    <mxGeometry relative="1" as="geometry">
                        <mxPoint x="154.9999999999999" y="330" as="sourcePoint"/>
                        <mxPoint x="150" y="420" as="targetPoint"/>
                    </mxGeometry>
                </mxCell>
                <mxCell id="40" value="" style="html=1;rounded=0;rotation=-180;fillColor=#006EAF;fontColor=#006EAF;strokeColor=#006EAF;" vertex="1" parent="1">
                    <mxGeometry x="110" y="320" width="20" height="20" as="geometry"/>
                </mxCell>
                <mxCell id="41" value="" style="edgeStyle=none;jumpSize=2;html=1;shadow=0;fontColor=#006EAF;startArrow=none;startFill=0;endArrow=oval;endFill=1;startSize=0;endSize=8;sourcePerimeterSpacing=0;targetPerimeterSpacing=0;fillColor=#1ba1e2;strokeColor=#006EAF;" edge="1" parent="1">
                    <mxGeometry relative="1" as="geometry">
                        <mxPoint x="109.99999999999989" y="329.69000000000005" as="sourcePoint"/>
                        <mxPoint x="74" y="329.69000000000005" as="targetPoint"/>
                    </mxGeometry>
                </mxCell>
                <mxCell id="42" value="User&lt;br&gt;Session" style="text;html=1;align=center;verticalAlign=middle;resizable=0;points=[];autosize=1;strokeColor=none;fillColor=none;fontColor=#006EAF;" vertex="1" parent="1">
                    <mxGeometry x="50" y="285" width="70" height="40" as="geometry"/>
                </mxCell>
                <mxCell id="43" value="" style="html=1;rounded=0;rotation=-180;fillColor=#006EAF;fontColor=#006EAF;strokeColor=#006EAF;" vertex="1" parent="1">
                    <mxGeometry x="330" y="100" width="20" height="20" as="geometry"/>
                </mxCell>
                <mxCell id="44" value="" style="edgeStyle=none;jumpSize=2;html=1;shadow=0;fontColor=#006EAF;startArrow=halfCircle;startFill=0;endArrow=none;endFill=0;startSize=6;endSize=0;sourcePerimeterSpacing=0;targetPerimeterSpacing=0;fillColor=#1ba1e2;strokeColor=#006EAF;" edge="1" parent="1">
                    <mxGeometry relative="1" as="geometry">
                        <mxPoint x="379.9999999999999" y="109.69" as="sourcePoint"/>
                        <mxPoint x="350" y="110" as="targetPoint"/>
                    </mxGeometry>
                </mxCell>
                <mxCell id="46" value="" style="edgeStyle=none;orthogonalLoop=1;jettySize=auto;html=1;shadow=0;fontColor=#006EAF;startArrow=none;startFill=0;endArrow=none;endFill=0;startSize=6;endSize=0;sourcePerimeterSpacing=0;targetPerimeterSpacing=0;jumpSize=2;fillColor=#1ba1e2;strokeColor=#006EAF;" edge="1" parent="1">
                    <mxGeometry width="80" relative="1" as="geometry">
                        <mxPoint x="380" y="109.69" as="sourcePoint"/>
                        <mxPoint x="410" y="110" as="targetPoint"/>
                        <Array as="points"/>
                    </mxGeometry>
                </mxCell>
                <mxCell id="47" value="" style="html=1;rounded=0;rotation=-180;fillColor=#006EAF;fontColor=#006EAF;strokeColor=#006EAF;" vertex="1" parent="1">
                    <mxGeometry x="410" y="100" width="20" height="20" as="geometry"/>
                </mxCell>
                <mxCell id="48" value="" style="html=1;rounded=0;rotation=-180;fillColor=#006EAF;fontColor=#006EAF;strokeColor=#006EAF;" vertex="1" parent="1">
                    <mxGeometry x="330" y="180" width="20" height="20" as="geometry"/>
                </mxCell>
                <mxCell id="49" value="" style="edgeStyle=none;jumpSize=2;html=1;shadow=0;fontColor=#006EAF;startArrow=halfCircle;startFill=0;endArrow=none;endFill=0;startSize=6;endSize=0;sourcePerimeterSpacing=0;targetPerimeterSpacing=0;fillColor=#1ba1e2;strokeColor=#006EAF;" edge="1" parent="1">
                    <mxGeometry relative="1" as="geometry">
                        <mxPoint x="379.9999999999999" y="189.69" as="sourcePoint"/>
                        <mxPoint x="350.0000000000001" y="190" as="targetPoint"/>
                    </mxGeometry>
                </mxCell>
                <mxCell id="50" value="" style="edgeStyle=none;orthogonalLoop=1;jettySize=auto;html=1;shadow=0;fontColor=#006EAF;startArrow=none;startFill=0;endArrow=none;endFill=0;startSize=6;endSize=0;sourcePerimeterSpacing=0;targetPerimeterSpacing=0;jumpSize=2;fillColor=#1ba1e2;strokeColor=#006EAF;" edge="1" parent="1">
                    <mxGeometry width="80" relative="1" as="geometry">
                        <mxPoint x="380.0000000000001" y="189.69" as="sourcePoint"/>
                        <mxPoint x="410.0000000000001" y="190" as="targetPoint"/>
                        <Array as="points"/>
                    </mxGeometry>
                </mxCell>
                <mxCell id="51" value="" style="html=1;rounded=0;rotation=-180;fillColor=#006EAF;fontColor=#006EAF;strokeColor=#006EAF;" vertex="1" parent="1">
                    <mxGeometry x="410" y="180" width="20" height="20" as="geometry"/>
                </mxCell>
                <mxCell id="52" value="" style="html=1;rounded=0;rotation=-180;fillColor=#006EAF;fontColor=#006EAF;strokeColor=#006EAF;" vertex="1" parent="1">
                    <mxGeometry x="330" y="320" width="20" height="20" as="geometry"/>
                </mxCell>
                <mxCell id="53" value="" style="edgeStyle=none;jumpSize=2;html=1;shadow=0;fontColor=#006EAF;startArrow=halfCircle;startFill=0;endArrow=none;endFill=0;startSize=6;endSize=0;sourcePerimeterSpacing=0;targetPerimeterSpacing=0;fillColor=#1ba1e2;strokeColor=#006EAF;" edge="1" parent="1">
                    <mxGeometry relative="1" as="geometry">
                        <mxPoint x="379.9999999999999" y="329.69" as="sourcePoint"/>
                        <mxPoint x="350.0000000000001" y="330" as="targetPoint"/>
                    </mxGeometry>
                </mxCell>
                <mxCell id="54" value="" style="edgeStyle=none;orthogonalLoop=1;jettySize=auto;html=1;shadow=0;fontColor=#006EAF;startArrow=none;startFill=0;endArrow=none;endFill=0;startSize=6;endSize=0;sourcePerimeterSpacing=0;targetPerimeterSpacing=0;jumpSize=2;fillColor=#1ba1e2;strokeColor=#006EAF;" edge="1" parent="1">
                    <mxGeometry width="80" relative="1" as="geometry">
                        <mxPoint x="380.0000000000001" y="329.69" as="sourcePoint"/>
                        <mxPoint x="410.0000000000001" y="330" as="targetPoint"/>
                        <Array as="points"/>
                    </mxGeometry>
                </mxCell>
                <mxCell id="55" value="" style="html=1;rounded=0;rotation=-180;fillColor=#006EAF;fontColor=#006EAF;strokeColor=#006EAF;" vertex="1" parent="1">
                    <mxGeometry x="410" y="320" width="20" height="20" as="geometry"/>
                </mxCell>
                <mxCell id="56" value="«subsystem»&lt;br&gt;Warehouses" style="html=1;dropTarget=0;verticalAlign=top;fillColor=none;fontColor=#006EAF;strokeColor=#006EAF;" vertex="1" parent="1">
                    <mxGeometry x="546" y="40" width="300" height="110" as="geometry"/>
                </mxCell>
                <mxCell id="57" value="" style="shape=module;jettyWidth=8;jettyHeight=4;fillColor=none;fontColor=#006EAF;strokeColor=#006EAF;" vertex="1" parent="56">
                    <mxGeometry x="1" width="20" height="20" relative="1" as="geometry">
                        <mxPoint x="-27" y="7" as="offset"/>
                    </mxGeometry>
                </mxCell>
                <mxCell id="58" value="" style="edgeStyle=none;jumpSize=2;html=1;shadow=0;fontColor=#006EAF;startArrow=halfCircle;startFill=0;endArrow=none;endFill=0;startSize=6;endSize=0;sourcePerimeterSpacing=0;targetPerimeterSpacing=0;fillColor=#1ba1e2;strokeColor=#006EAF;" edge="1" parent="1">
                    <mxGeometry relative="1" as="geometry">
                        <mxPoint x="459.9999999999999" y="109.69" as="sourcePoint"/>
                        <mxPoint x="430.0000000000001" y="110" as="targetPoint"/>
                    </mxGeometry>
                </mxCell>
                <mxCell id="59" value=":Inventory" style="html=1;dropTarget=0;fillColor=none;fontColor=#006EAF;strokeColor=#006EAF;" vertex="1" parent="1">
                    <mxGeometry x="626" y="80" width="140" height="60" as="geometry"/>
                </mxCell>
                <mxCell id="60" value="" style="shape=module;jettyWidth=8;jettyHeight=4;fillColor=none;fontColor=#006EAF;strokeColor=#006EAF;" vertex="1" parent="59">
                    <mxGeometry x="1" width="20" height="20" relative="1" as="geometry">
                        <mxPoint x="-27" y="7" as="offset"/>
                    </mxGeometry>
                </mxCell>
                <mxCell id="61" value="" style="edgeStyle=none;jumpSize=2;html=1;shadow=0;fontColor=#006EAF;startArrow=none;startFill=0;endArrow=oval;endFill=1;startSize=0;endSize=8;sourcePerimeterSpacing=0;targetPerimeterSpacing=0;fillColor=#1ba1e2;strokeColor=#006EAF;" edge="1" parent="1" source="62">
                    <mxGeometry relative="1" as="geometry">
                        <mxPoint x="580" y="110" as="targetPoint"/>
                    </mxGeometry>
                </mxCell>
                <mxCell id="62" value="" style="html=1;rounded=0;rotation=-180;fillColor=#006EAF;fontColor=#006EAF;strokeColor=#006EAF;" vertex="1" parent="1">
                    <mxGeometry x="616" y="100" width="20" height="20" as="geometry"/>
                </mxCell>
                <mxCell id="63" value="" style="rounded=0;orthogonalLoop=1;jettySize=auto;html=1;endArrow=none;endFill=0;sketch=0;sourcePerimeterSpacing=0;targetPerimeterSpacing=0;startSize=0;endSize=8;fillColor=#1ba1e2;strokeColor=#006EAF;fontColor=#006EAF;" edge="1" parent="1" target="64">
                    <mxGeometry relative="1" as="geometry">
                        <mxPoint x="580.9999999999999" y="110" as="sourcePoint"/>
                        <mxPoint x="576" y="200" as="targetPoint"/>
                    </mxGeometry>
                </mxCell>
                <mxCell id="64" value="" style="html=1;rounded=0;rotation=-180;fillColor=#006EAF;fontColor=#006EAF;strokeColor=#006EAF;" vertex="1" parent="1">
                    <mxGeometry x="536" y="100" width="20" height="20" as="geometry"/>
                </mxCell>
                <mxCell id="65" value="" style="edgeStyle=none;jumpSize=2;html=1;shadow=0;fontColor=#006EAF;startArrow=none;startFill=0;endArrow=oval;endFill=1;startSize=0;endSize=8;sourcePerimeterSpacing=0;targetPerimeterSpacing=0;fillColor=#1ba1e2;strokeColor=#006EAF;" edge="1" parent="1">
                    <mxGeometry relative="1" as="geometry">
                        <mxPoint x="535.9999999999999" y="109.69" as="sourcePoint"/>
                        <mxPoint x="500" y="109.69" as="targetPoint"/>
                    </mxGeometry>
                </mxCell>
                <mxCell id="66" value="" style="edgeStyle=none;orthogonalLoop=1;jettySize=auto;html=1;shadow=0;fontColor=#006EAF;startArrow=none;startFill=0;endArrow=open;endFill=0;sourcePerimeterSpacing=0;targetPerimeterSpacing=0;jumpSize=2;fillColor=#1ba1e2;strokeColor=#006EAF;dashed=1;" edge="1" parent="1">
                    <mxGeometry width="80" relative="1" as="geometry">
                        <mxPoint x="460" y="110" as="sourcePoint"/>
                        <mxPoint x="496" y="110" as="targetPoint"/>
                        <Array as="points"/>
                    </mxGeometry>
                </mxCell>
                <mxCell id="67" value="" style="edgeStyle=none;jumpSize=2;html=1;shadow=0;fontColor=#006EAF;startArrow=none;startFill=0;endArrow=oval;endFill=1;startSize=0;endSize=8;sourcePerimeterSpacing=0;targetPerimeterSpacing=0;fillColor=#1ba1e2;strokeColor=#006EAF;" edge="1" parent="1" source="68">
                    <mxGeometry relative="1" as="geometry">
                        <mxPoint x="800" y="110" as="targetPoint"/>
                    </mxGeometry>
                </mxCell>
                <mxCell id="68" value="" style="html=1;rounded=0;rotation=-180;fillColor=#006EAF;fontColor=#006EAF;strokeColor=#006EAF;" vertex="1" parent="1">
                    <mxGeometry x="836" y="100" width="20" height="20" as="geometry"/>
                </mxCell>
                <mxCell id="69" value="" style="rounded=0;orthogonalLoop=1;jettySize=auto;html=1;endArrow=none;endFill=0;sketch=0;sourcePerimeterSpacing=0;targetPerimeterSpacing=0;startSize=0;endSize=8;fillColor=#1ba1e2;strokeColor=#006EAF;fontColor=#006EAF;" edge="1" parent="1" target="70">
                    <mxGeometry relative="1" as="geometry">
                        <mxPoint x="801" y="110" as="sourcePoint"/>
                        <mxPoint x="796" y="200" as="targetPoint"/>
                    </mxGeometry>
                </mxCell>
                <mxCell id="70" value="" style="html=1;rounded=0;rotation=-180;fillColor=#006EAF;fontColor=#006EAF;strokeColor=#006EAF;" vertex="1" parent="1">
                    <mxGeometry x="756" y="100" width="20" height="20" as="geometry"/>
                </mxCell>
                <mxCell id="72" value="" style="edgeStyle=none;jumpSize=2;html=1;shadow=0;fontColor=#006EAF;startArrow=none;startFill=0;endArrow=oval;endFill=1;startSize=0;endSize=8;sourcePerimeterSpacing=0;targetPerimeterSpacing=0;fillColor=#1ba1e2;strokeColor=#006EAF;exitX=0;exitY=0.5;exitDx=0;exitDy=0;" edge="1" parent="1" source="68">
                    <mxGeometry relative="1" as="geometry">
                        <mxPoint x="902" y="150" as="sourcePoint"/>
                        <mxPoint x="896" y="110" as="targetPoint"/>
                    </mxGeometry>
                </mxCell>
                <mxCell id="73" value="«subsystem»&lt;br&gt;Accounting" style="html=1;dropTarget=0;verticalAlign=top;fillColor=none;fontColor=#006EAF;strokeColor=#006EAF;" vertex="1" parent="1">
                    <mxGeometry x="546" y="160" width="300" height="210" as="geometry"/>
                </mxCell>
                <mxCell id="74" value="" style="shape=module;jettyWidth=8;jettyHeight=4;fillColor=none;fontColor=#006EAF;strokeColor=#006EAF;" vertex="1" parent="73">
                    <mxGeometry x="1" width="20" height="20" relative="1" as="geometry">
                        <mxPoint x="-27" y="7" as="offset"/>
                    </mxGeometry>
                </mxCell>
                <mxCell id="75" value=":Orders" style="html=1;dropTarget=0;fillColor=none;fontColor=#006EAF;strokeColor=#006EAF;" vertex="1" parent="1">
                    <mxGeometry x="626" y="200" width="140" height="60" as="geometry"/>
                </mxCell>
                <mxCell id="76" value="" style="shape=module;jettyWidth=8;jettyHeight=4;fillColor=none;fontColor=#006EAF;strokeColor=#006EAF;" vertex="1" parent="75">
                    <mxGeometry x="1" width="20" height="20" relative="1" as="geometry">
                        <mxPoint x="-27" y="7" as="offset"/>
                    </mxGeometry>
                </mxCell>
                <mxCell id="77" value="" style="edgeStyle=none;jumpSize=2;html=1;shadow=0;fontColor=#006EAF;startArrow=none;startFill=0;endArrow=oval;endFill=1;startSize=0;endSize=8;sourcePerimeterSpacing=0;targetPerimeterSpacing=0;fillColor=#1ba1e2;strokeColor=#006EAF;" edge="1" parent="1" source="78">
                    <mxGeometry relative="1" as="geometry">
                        <mxPoint x="580" y="230" as="targetPoint"/>
                    </mxGeometry>
                </mxCell>
                <mxCell id="78" value="" style="html=1;rounded=0;rotation=-180;fillColor=#006EAF;fontColor=#006EAF;strokeColor=#006EAF;" vertex="1" parent="1">
                    <mxGeometry x="616" y="220" width="20" height="20" as="geometry"/>
                </mxCell>
                <mxCell id="79" value="" style="rounded=0;orthogonalLoop=1;jettySize=auto;html=1;endArrow=none;endFill=0;sketch=0;sourcePerimeterSpacing=0;targetPerimeterSpacing=0;startSize=0;endSize=8;fillColor=#1ba1e2;strokeColor=#006EAF;fontColor=#006EAF;" edge="1" parent="1" target="80">
                    <mxGeometry relative="1" as="geometry">
                        <mxPoint x="581" y="230" as="sourcePoint"/>
                        <mxPoint x="576" y="320" as="targetPoint"/>
                    </mxGeometry>
                </mxCell>
                <mxCell id="80" value="" style="html=1;rounded=0;rotation=-180;fillColor=#006EAF;fontColor=#006EAF;strokeColor=#006EAF;" vertex="1" parent="1">
                    <mxGeometry x="536" y="220" width="20" height="20" as="geometry"/>
                </mxCell>
                <mxCell id="81" value="" style="edgeStyle=none;jumpSize=2;html=1;shadow=0;fontColor=#006EAF;startArrow=none;startFill=0;endArrow=oval;endFill=1;startSize=0;endSize=8;sourcePerimeterSpacing=0;targetPerimeterSpacing=0;fillColor=#1ba1e2;strokeColor=#006EAF;" edge="1" parent="1">
                    <mxGeometry relative="1" as="geometry">
                        <mxPoint x="536" y="229.69" as="sourcePoint"/>
                        <mxPoint x="500" y="229.69" as="targetPoint"/>
                    </mxGeometry>
                </mxCell>
                <mxCell id="87" value="" style="edgeStyle=none;jumpSize=2;html=1;shadow=0;fontColor=#006EAF;startArrow=halfCircle;startFill=0;endArrow=none;endFill=0;startSize=6;endSize=0;sourcePerimeterSpacing=0;targetPerimeterSpacing=0;fillColor=#1ba1e2;strokeColor=#006EAF;" edge="1" parent="1">
                    <mxGeometry relative="1" as="geometry">
                        <mxPoint x="460" y="189.69" as="sourcePoint"/>
                        <mxPoint x="430" y="190" as="targetPoint"/>
                    </mxGeometry>
                </mxCell>
                <mxCell id="88" value="" style="edgeStyle=orthogonalEdgeStyle;orthogonalLoop=1;jettySize=auto;html=1;shadow=0;fontColor=#006EAF;startArrow=none;startFill=0;endArrow=open;endFill=0;sourcePerimeterSpacing=0;targetPerimeterSpacing=0;jumpSize=2;fillColor=#1ba1e2;strokeColor=#006EAF;dashed=1;curved=1;" edge="1" parent="1">
                    <mxGeometry width="80" relative="1" as="geometry">
                        <mxPoint x="460" y="190" as="sourcePoint"/>
                        <mxPoint x="495" y="230" as="targetPoint"/>
                        <Array as="points">
                            <mxPoint x="485" y="190"/>
                            <mxPoint x="485" y="230"/>
                        </Array>
                    </mxGeometry>
                </mxCell>
                <mxCell id="89" value="" style="edgeStyle=none;jumpSize=2;html=1;shadow=0;fontColor=#006EAF;startArrow=halfCircle;startFill=0;endArrow=none;endFill=0;startSize=6;endSize=0;sourcePerimeterSpacing=0;targetPerimeterSpacing=0;fillColor=#1ba1e2;strokeColor=#006EAF;" edge="1" parent="1">
                    <mxGeometry relative="1" as="geometry">
                        <mxPoint x="460" y="329.69" as="sourcePoint"/>
                        <mxPoint x="430" y="330" as="targetPoint"/>
                    </mxGeometry>
                </mxCell>
                <mxCell id="90" value="" style="edgeStyle=none;orthogonalLoop=1;jettySize=auto;html=1;shadow=0;fontColor=#006EAF;startArrow=none;startFill=0;endArrow=open;endFill=0;sourcePerimeterSpacing=0;targetPerimeterSpacing=0;jumpSize=2;fillColor=#1ba1e2;strokeColor=#006EAF;dashed=1;" edge="1" parent="1">
                    <mxGeometry width="80" relative="1" as="geometry">
                        <mxPoint x="460" y="330" as="sourcePoint"/>
                        <mxPoint x="496" y="330" as="targetPoint"/>
                        <Array as="points"/>
                    </mxGeometry>
                </mxCell>
                <mxCell id="91" value="" style="html=1;rounded=0;rotation=-180;fillColor=#006EAF;fontColor=#006EAF;strokeColor=#006EAF;" vertex="1" parent="1">
                    <mxGeometry x="756" y="220" width="20" height="20" as="geometry"/>
                </mxCell>
                <mxCell id="92" value="" style="edgeStyle=none;jumpSize=2;html=1;shadow=0;fontColor=#006EAF;startArrow=halfCircle;startFill=0;endArrow=none;endFill=0;startSize=6;endSize=0;sourcePerimeterSpacing=0;targetPerimeterSpacing=0;fillColor=#1ba1e2;strokeColor=#006EAF;" edge="1" parent="1">
                    <mxGeometry relative="1" as="geometry">
                        <mxPoint x="806" y="229.69000000000005" as="sourcePoint"/>
                        <mxPoint x="776" y="230" as="targetPoint"/>
                    </mxGeometry>
                </mxCell>
                <mxCell id="93" value="" style="edgeStyle=none;orthogonalLoop=1;jettySize=auto;html=1;shadow=0;fontColor=#006EAF;startArrow=none;startFill=0;endArrow=none;endFill=0;startSize=6;endSize=0;sourcePerimeterSpacing=0;targetPerimeterSpacing=0;jumpSize=2;fillColor=#1ba1e2;strokeColor=#006EAF;" edge="1" parent="1">
                    <mxGeometry width="80" relative="1" as="geometry">
                        <mxPoint x="806" y="229.69000000000005" as="sourcePoint"/>
                        <mxPoint x="836" y="230" as="targetPoint"/>
                        <Array as="points"/>
                    </mxGeometry>
                </mxCell>
                <mxCell id="94" value="" style="html=1;rounded=0;rotation=-180;fillColor=#006EAF;fontColor=#006EAF;strokeColor=#006EAF;" vertex="1" parent="1">
                    <mxGeometry x="836" y="220" width="20" height="20" as="geometry"/>
                </mxCell>
                <mxCell id="95" value="" style="edgeStyle=none;jumpSize=2;html=1;shadow=0;fontColor=#006EAF;startArrow=halfCircle;startFill=0;endArrow=none;endFill=0;startSize=6;endSize=0;sourcePerimeterSpacing=0;targetPerimeterSpacing=0;fillColor=#1ba1e2;strokeColor=#006EAF;" edge="1" parent="1">
                    <mxGeometry relative="1" as="geometry">
                        <mxPoint x="886" y="229.69000000000005" as="sourcePoint"/>
                        <mxPoint x="856" y="230" as="targetPoint"/>
                    </mxGeometry>
                </mxCell>
                <mxCell id="96" value="" style="edgeStyle=none;orthogonalLoop=1;jettySize=auto;html=1;shadow=0;fontColor=#006EAF;startArrow=none;startFill=0;endArrow=open;endFill=0;sourcePerimeterSpacing=0;targetPerimeterSpacing=0;jumpSize=2;fillColor=#1ba1e2;strokeColor=#006EAF;dashed=1;" edge="1" parent="1">
                    <mxGeometry width="80" relative="1" as="geometry">
                        <mxPoint x="890" y="230" as="sourcePoint"/>
                        <mxPoint x="900" y="110" as="targetPoint"/>
                        <Array as="points">
                            <mxPoint x="915" y="230"/>
                            <mxPoint x="915" y="110"/>
                        </Array>
                    </mxGeometry>
                </mxCell>
                <mxCell id="97" value=":Customers" style="html=1;dropTarget=0;fillColor=none;fontColor=#006EAF;strokeColor=#006EAF;" vertex="1" parent="1">
                    <mxGeometry x="626" y="300" width="140" height="60" as="geometry"/>
                </mxCell>
                <mxCell id="98" value="" style="shape=module;jettyWidth=8;jettyHeight=4;fillColor=none;fontColor=#006EAF;strokeColor=#006EAF;" vertex="1" parent="97">
                    <mxGeometry x="1" width="20" height="20" relative="1" as="geometry">
                        <mxPoint x="-27" y="7" as="offset"/>
                    </mxGeometry>
                </mxCell>
                <mxCell id="99" value="" style="edgeStyle=none;jumpSize=2;html=1;shadow=0;fontColor=#006EAF;startArrow=none;startFill=0;endArrow=oval;endFill=1;startSize=0;endSize=8;sourcePerimeterSpacing=0;targetPerimeterSpacing=0;fillColor=#1ba1e2;strokeColor=#006EAF;" edge="1" parent="1" source="100">
                    <mxGeometry relative="1" as="geometry">
                        <mxPoint x="580" y="330" as="targetPoint"/>
                    </mxGeometry>
                </mxCell>
                <mxCell id="100" value="" style="html=1;rounded=0;rotation=-180;fillColor=#006EAF;fontColor=#006EAF;strokeColor=#006EAF;" vertex="1" parent="1">
                    <mxGeometry x="616" y="320" width="20" height="20" as="geometry"/>
                </mxCell>
                <mxCell id="101" value="" style="rounded=0;orthogonalLoop=1;jettySize=auto;html=1;endArrow=none;endFill=0;sketch=0;sourcePerimeterSpacing=0;targetPerimeterSpacing=0;startSize=0;endSize=8;fillColor=#1ba1e2;strokeColor=#006EAF;fontColor=#006EAF;" edge="1" parent="1" target="102">
                    <mxGeometry relative="1" as="geometry">
                        <mxPoint x="581" y="330" as="sourcePoint"/>
                        <mxPoint x="576" y="420" as="targetPoint"/>
                    </mxGeometry>
                </mxCell>
                <mxCell id="102" value="" style="html=1;rounded=0;rotation=-180;fillColor=#006EAF;fontColor=#006EAF;strokeColor=#006EAF;" vertex="1" parent="1">
                    <mxGeometry x="536" y="320" width="20" height="20" as="geometry"/>
                </mxCell>
                <mxCell id="103" value="" style="edgeStyle=none;jumpSize=2;html=1;shadow=0;fontColor=#006EAF;startArrow=none;startFill=0;endArrow=oval;endFill=1;startSize=0;endSize=8;sourcePerimeterSpacing=0;targetPerimeterSpacing=0;fillColor=#1ba1e2;strokeColor=#006EAF;" edge="1" parent="1">
                    <mxGeometry relative="1" as="geometry">
                        <mxPoint x="536" y="329.69000000000005" as="sourcePoint"/>
                        <mxPoint x="500" y="329.69000000000005" as="targetPoint"/>
                    </mxGeometry>
                </mxCell>
                <mxCell id="106" value="Manage&lt;br&gt;Customers" style="text;html=1;align=center;verticalAlign=middle;resizable=0;points=[];autosize=1;strokeColor=none;fillColor=none;fontColor=#006EAF;" vertex="1" parent="1">
                    <mxGeometry x="466" y="285" width="80" height="40" as="geometry"/>
                </mxCell>
                <mxCell id="107" value="Manage&lt;br&gt;Orders" style="text;html=1;align=center;verticalAlign=middle;resizable=0;points=[];autosize=1;strokeColor=none;fillColor=none;fontColor=#006EAF;" vertex="1" parent="1">
                    <mxGeometry x="476" y="185" width="70" height="40" as="geometry"/>
                </mxCell>
                <mxCell id="108" value="Search&lt;br&gt;Inventory" style="text;html=1;align=center;verticalAlign=middle;resizable=0;points=[];autosize=1;strokeColor=none;fillColor=none;fontColor=#006EAF;" vertex="1" parent="1">
                    <mxGeometry x="471" y="65" width="70" height="40" as="geometry"/>
                </mxCell>
                <mxCell id="109" value="Manage&lt;br&gt;Inventory" style="text;html=1;align=center;verticalAlign=middle;resizable=0;points=[];autosize=1;strokeColor=none;fillColor=none;fontColor=#006EAF;" vertex="1" parent="1">
                    <mxGeometry x="846" y="185" width="70" height="40" as="geometry"/>
                </mxCell>
                <mxCell id="110" value="Manage&lt;br&gt;Inventory" style="text;html=1;align=center;verticalAlign=middle;resizable=0;points=[];autosize=1;strokeColor=none;fillColor=none;fontColor=#006EAF;" vertex="1" parent="1">
                    <mxGeometry x="856" y="65" width="70" height="40" as="geometry"/>
                </mxCell>
            </root>
        </mxGraphModel>
    </diagram>
</mxfile>